<?xml version="1.0" encoding="utf-8"?>
<!-- Generator: Adobe Illustrator 17.1.0, SVG Export Plug-In . SVG Version: 6.00 Build 0)  -->
<!DOCTYPE svg PUBLIC "-//W3C//DTD SVG 1.1//EN" "http://www.w3.org/Graphics/SVG/1.1/DTD/svg11.dtd">
<svg version="1.1" id="Layer_1" xmlns="http://www.w3.org/2000/svg" xmlns:xlink="http://www.w3.org/1999/xlink" x="0px" y="0px"
	 viewBox="0 0 600 600" enable-background="new 0 0 600 600" xml:space="preserve">
<g>
	
		<polygon fill="none" stroke="#231F20" stroke-width="6" stroke-linecap="round" stroke-linejoin="round" stroke-miterlimit="10" points="
		200.3,341.8 87.5,454.8 146.5,513.8 259.3,400.8 259.3,341.8 	"/>
	
		<polygon fill="none" stroke="#231F20" stroke-width="6" stroke-linecap="round" stroke-linejoin="round" stroke-miterlimit="10" points="
		401.7,258.2 514.5,145.2 455.5,86.2 342.7,199.1 342.7,258.2 	"/>
	
		<polygon fill="none" stroke="#231F20" stroke-width="6" stroke-linecap="round" stroke-linejoin="round" stroke-miterlimit="10" points="
		259.3,199.2 146.5,86.2 87.5,145.2 200.3,258.2 259.3,258.2 	"/>
	
		<polygon fill="none" stroke="#231F20" stroke-width="6" stroke-linecap="round" stroke-linejoin="round" stroke-miterlimit="10" points="
		342.7,341.8 342.7,400.9 455.5,513.8 514.5,454.8 401.7,341.8 	"/>
	
		<polyline fill="none" stroke="#231F20" stroke-width="6" stroke-linecap="round" stroke-linejoin="round" stroke-miterlimit="10" points="
		401.7,341.8 514.5,341.8 514.5,258.2 401.7,258.2 	"/>
	
		<polyline fill="none" stroke="#231F20" stroke-width="6" stroke-linecap="round" stroke-linejoin="round" stroke-miterlimit="10" points="
		200.3,258.2 87.5,258.2 87.5,341.8 200.3,341.8 	"/>
	
		<polyline fill="none" stroke="#231F20" stroke-width="6" stroke-linecap="round" stroke-linejoin="round" stroke-miterlimit="10" points="
		401.7,258.2 342.7,258.2 342.7,282.7 	"/>
	
		<polyline fill="none" stroke="#231F20" stroke-width="6" stroke-linecap="round" stroke-linejoin="round" stroke-miterlimit="10" points="
		200.3,341.8 259.3,341.8 259.3,317.3 	"/>
	
		<polyline fill="none" stroke="#231F20" stroke-width="6" stroke-linecap="round" stroke-linejoin="round" stroke-miterlimit="10" points="
		259.3,282.7 259.3,258.2 200.3,258.2 	"/>
	
		<polyline fill="none" stroke="#231F20" stroke-width="6" stroke-linecap="round" stroke-linejoin="round" stroke-miterlimit="10" points="
		342.7,317.3 342.7,341.8 401.7,341.8 	"/>
	
		<line fill="none" stroke="#231F20" stroke-width="6" stroke-linecap="round" stroke-linejoin="round" stroke-miterlimit="10" x1="259.3" y1="317.3" x2="259.3" y2="282.7"/>
	
		<line fill="none" stroke="#231F20" stroke-width="6" stroke-linecap="round" stroke-linejoin="round" stroke-miterlimit="10" x1="342.7" y1="282.7" x2="342.7" y2="317.3"/>
	
		<polyline fill="none" stroke="#231F20" stroke-width="6" stroke-linecap="round" stroke-linejoin="round" stroke-miterlimit="10" points="
		342.7,199.1 342.7,86.2 259.3,86.2 259.3,199.2 	"/>
	
		<polyline fill="none" stroke="#231F20" stroke-width="6" stroke-linecap="round" stroke-linejoin="round" stroke-miterlimit="10" points="
		259.3,400.8 259.3,513.8 342.7,513.8 342.7,400.9 	"/>
	
		<line fill="none" stroke="#231F20" stroke-width="6" stroke-linecap="round" stroke-linejoin="round" stroke-miterlimit="10" x1="259.3" y1="341.8" x2="259.3" y2="400.8"/>
	
		<line fill="none" stroke="#231F20" stroke-width="6" stroke-linecap="round" stroke-linejoin="round" stroke-miterlimit="10" x1="342.7" y1="258.2" x2="342.7" y2="199.1"/>
	
		<line fill="none" stroke="#231F20" stroke-width="6" stroke-linecap="round" stroke-linejoin="round" stroke-miterlimit="10" x1="259.3" y1="199.2" x2="259.3" y2="258.2"/>
	
		<line fill="none" stroke="#231F20" stroke-width="6" stroke-linecap="round" stroke-linejoin="round" stroke-miterlimit="10" x1="342.7" y1="400.9" x2="342.7" y2="341.8"/>
	
		<line fill="none" stroke="#231F20" stroke-width="6" stroke-linecap="round" stroke-linejoin="round" stroke-miterlimit="10" x1="342.7" y1="282.7" x2="342.7" y2="258.2"/>
	
		<line fill="none" stroke="#231F20" stroke-width="6" stroke-linecap="round" stroke-linejoin="round" stroke-miterlimit="10" x1="259.3" y1="317.3" x2="259.3" y2="341.8"/>
	
		<line fill="none" stroke="#231F20" stroke-width="6" stroke-linecap="round" stroke-linejoin="round" stroke-miterlimit="10" x1="259.3" y1="258.2" x2="259.3" y2="282.7"/>
	
		<line fill="none" stroke="#231F20" stroke-width="6" stroke-linecap="round" stroke-linejoin="round" stroke-miterlimit="10" x1="342.7" y1="341.8" x2="342.7" y2="317.3"/>
	
		<line fill="none" stroke="#231F20" stroke-width="6" stroke-linecap="round" stroke-linejoin="round" stroke-miterlimit="10" x1="342.7" y1="317.3" x2="342.7" y2="282.7"/>
	
		<line fill="none" stroke="#231F20" stroke-width="6" stroke-linecap="round" stroke-linejoin="round" stroke-miterlimit="10" x1="259.3" y1="282.7" x2="259.3" y2="317.3"/>
</g>
</svg>
